<svg width="86" height="50" viewBox="0 0 86 50" fill="none" xmlns="http://www.w3.org/2000/svg">
<g clip-path="url(#clip0_1823_4857)">
<path d="M85.7169 2.12207H78.4512V28.0889H85.7169V2.12207Z" fill="white"/>
<path d="M40.8952 6.69409V2.12207H33.6295V12.3806V13.1217V14.7787V18.2123C33.6403 18.896 33.5672 19.5785 33.4119 20.2442C33.2912 20.7674 33.0453 21.2531 32.6958 21.6587C32.3475 22.0405 31.9062 22.324 31.4155 22.4807C30.8932 22.6579 30.2557 22.7467 29.5028 22.7473C28.7501 22.7478 28.1124 22.659 27.5901 22.4807C27.0997 22.3236 26.6584 22.0403 26.31 21.6587C25.9606 21.253 25.7151 20.7674 25.5947 20.2442C25.4385 19.5786 25.3652 18.8961 25.3762 18.2123V14.7787V13.1217V12.2292V2.12207H18.1113V6.69409V16.1692C18.1113 18.3252 18.3122 20.1941 18.7139 21.7756C19.1156 23.3573 19.7736 24.6588 20.6879 25.6803C21.6018 26.703 22.7795 27.4592 24.2214 27.9487C25.6633 28.4383 27.4229 28.6831 29.5003 28.6831C31.5782 28.6831 33.3379 28.4383 34.7791 27.9487C36.2204 27.4592 37.3982 26.703 38.3126 25.6803C39.2264 24.6588 39.8845 23.3573 40.2868 21.7756C40.689 20.1941 40.8899 18.3252 40.8893 16.1692V6.69409H40.8952Z" fill="white"/>
<path d="M7.26578 22.4008V2.12207H0V20.9665C0 23.275 0.580948 25.0392 1.74284 26.2591C2.90473 27.4789 4.7292 28.0889 7.21628 28.0889H16.8283V22.4008H7.26578Z" fill="white"/>
<path d="M72.7822 3.72767C71.3597 2.26186 69.3878 1.52809 66.8667 1.52637C65.6223 1.52637 64.5748 1.69147 63.7241 2.02167C62.9437 2.30986 62.221 2.73681 61.5904 3.28224C61.0483 3.75467 60.5988 4.32515 60.2649 4.96419C59.9798 5.50574 59.7573 6.07843 59.6017 6.67107H59.21C59.0574 6.08434 58.8517 5.51299 58.5955 4.96419C58.2949 4.32427 57.869 3.75216 57.3434 3.28224C56.7869 2.77148 56.0834 2.35128 55.2327 2.02167C54.3821 1.69204 53.3348 1.52694 52.091 1.52637C49.3416 1.52637 47.2387 2.42523 45.782 4.22297C44.3254 6.0207 43.5979 8.81562 43.5996 12.6077V28.0857H50.8654V11.3179C50.8654 8.25153 51.8309 6.71807 53.7621 6.71749C54.6457 6.71749 55.3001 6.99782 55.7252 7.55848C56.1502 8.11912 56.3627 8.89301 56.3627 9.88017V16.024H62.4507V9.89048C62.4507 7.78089 63.3182 6.72581 65.053 6.72523C66.7878 6.72466 67.6551 7.77975 67.6545 9.89048V27.1527V28.0926H74.9202V10.1381C74.9185 7.33375 74.2059 5.19693 72.7822 3.72767Z" fill="white"/>
<path d="M9.45724 41.2281C9.45724 41.2281 11.85 40.823 11.85 38.0732C11.85 35.3659 10.2321 34.1934 6.49473 34.1934H0V49.1155H6.63146C10.7562 49.1155 12.5337 47.8152 12.5337 44.8095C12.5337 41.6758 9.45724 41.2281 9.45724 41.2281ZM6.22127 47.2397H2.84857V42.23H6.22127C8.54571 42.23 9.5484 42.9974 9.5484 44.8095C9.5484 46.5148 8.5685 47.2397 6.22127 47.2397ZM2.84857 36.0693H6.08455C8.04435 36.0693 8.86474 36.7088 8.86474 38.2223C8.86474 39.7998 8.02157 40.482 6.08455 40.482H2.84857V36.0693Z" fill="white"/>
<path d="M21.7635 48.0924L22.1053 49.1157H24.1562V38.457H21.5812V44.2127C21.5812 46.4937 20.7835 47.453 18.9377 47.453C17.2057 47.453 16.4992 46.5149 16.4992 44.2127V38.457H13.9014V44.2127C13.9014 47.794 15.2232 49.3289 18.2767 49.3289C19.8948 49.3289 21.0342 48.9451 21.7635 48.0924Z" fill="white"/>
<path d="M28.3405 41.1637C28.3405 40.1404 28.9786 39.7353 30.5509 39.7353C32.1233 39.7353 32.7614 40.2256 32.7614 41.4408H35.0858C35.0858 39.2024 33.7185 38.2432 30.5509 38.2432C27.2694 38.2432 25.8793 39.2024 25.8793 41.4194C25.8793 45.5976 32.8525 43.5725 32.8525 46.2159C32.8525 47.367 32.1917 47.836 30.5509 47.836C28.9101 47.836 28.2265 47.2818 28.2265 45.9174H25.7881C25.7881 48.3049 27.1782 49.3282 30.4598 49.3282C33.9464 49.3282 35.4505 48.3049 35.4505 45.9388C35.4505 41.6752 28.3405 43.5725 28.3405 41.1637Z" fill="white"/>
<path d="M39.8583 49.114V38.4554H37.2604V49.114H39.8583ZM38.5593 33.8721C37.42 33.8721 36.9414 34.2984 36.9414 35.3003C36.9414 36.3023 37.4199 36.7499 38.5366 36.7499C39.676 36.7499 40.1774 36.3023 40.1774 35.3003C40.1774 34.3197 39.676 33.8721 38.5593 33.8721Z" fill="white"/>
<path d="M44.7532 39.4795L44.4113 38.4563H42.3604V49.115H44.9355V43.3593C44.9355 41.0783 45.733 40.119 47.579 40.119C49.3109 40.119 50.0173 41.0571 50.0173 43.3593V49.115H52.6152V43.3593C52.6152 39.778 51.2935 38.2432 48.2398 38.2432C46.6218 38.2432 45.4824 38.6269 44.7532 39.4795Z" fill="white"/>
<path d="M65.0492 44.7663V43.9349C65.0492 39.9485 63.3628 38.2432 59.466 38.2432C55.5463 38.2432 53.8828 39.9058 53.8828 43.7857C53.8828 47.6655 55.5463 49.3282 59.466 49.3282C62.5197 49.3282 64.0693 48.2836 64.5934 45.8748H62.1322C61.7449 47.1965 60.9929 47.708 59.466 47.708C57.5517 47.708 56.6402 46.8128 56.4351 44.7663H65.0492ZM59.4433 39.8633C61.5398 39.8633 62.4285 40.8439 62.4285 43.2954H56.3896C56.5035 40.8864 57.4378 39.8633 59.4433 39.8633Z" fill="white"/>
<path d="M68.4195 41.1637C68.4195 40.1404 69.0576 39.7353 70.63 39.7353C72.2024 39.7353 72.8405 40.2256 72.8405 41.4408H75.1649C75.1649 39.2024 73.7976 38.2432 70.63 38.2432C67.3484 38.2432 65.9584 39.2024 65.9584 41.4194C65.9584 45.5976 72.9316 43.5725 72.9316 46.2159C72.9316 47.367 72.2708 47.836 70.63 47.836C68.9892 47.836 68.3056 47.2818 68.3056 45.9174H65.8672C65.8672 48.3049 67.2573 49.3282 70.5388 49.3282C74.0255 49.3282 75.5295 48.3049 75.5295 45.9388C75.5295 41.6752 68.4195 43.5725 68.4195 41.1637Z" fill="white"/>
<path d="M78.8902 41.1637C78.8902 40.1404 79.5283 39.7353 81.1007 39.7353C82.673 39.7353 83.3111 40.2256 83.3111 41.4408H85.6356C85.6356 39.2024 84.2683 38.2432 81.1007 38.2432C77.8191 38.2432 76.429 39.2024 76.429 41.4194C76.429 45.5976 83.4023 43.5725 83.4023 46.2159C83.4023 47.367 82.7415 47.836 81.1007 47.836C79.4599 47.836 78.7762 47.2818 78.7762 45.9174H76.3379C76.3379 48.3049 77.7279 49.3282 81.0095 49.3282C84.4961 49.3282 86.0002 48.3049 86.0002 45.9388C86.0002 41.6752 78.8902 43.5725 78.8902 41.1637Z" fill="white"/>
</g>
<defs>
<clipPath id="clip0_1823_4857">
<rect width="86" height="48.6562" fill="white" transform="translate(0 0.671875)"/>
</clipPath>
</defs>
</svg>
